<?xml version="1.0" encoding="utf-8"?>
<!-- Generator: Adobe Illustrator 19.0.0, SVG Export Plug-In . SVG Version: 6.00 Build 0)  -->
<svg version="1.1" id="Capa_1" xmlns="http://www.w3.org/2000/svg" xmlns:xlink="http://www.w3.org/1999/xlink" x="0px" y="0px"
	 width="290.1px" height="161.1px" viewBox="0 0 290.1 161.1" style="enable-background:new 0 0 290.1 161.1;" xml:space="preserve"
	>
<style type="text/css">
	.st0{opacity:0.7;fill:#32ADD0;}
	.st1{fill:#F4F4F4;}
	.st2{fill:#BBBDBF;}
	.st3{fill:#2E303B;}
	.st4{fill:#363B55;}
	.st5{fill:#FFFFFF;}
	.st6{opacity:0.17;fill:#F2F2F2;}
	.st7{fill:#434856;}
	.st8{fill:#BCBEC0;}
	.st9{fill:#D1D3D4;}
	.st10{fill:#F1F2F2;}
	.st11{fill:#808386;}
	.st12{fill:url(#XMLID_54_);}
	.st13{fill:url(#XMLID_55_);}
	.st14{fill:url(#XMLID_56_);}
	.st15{fill:url(#XMLID_57_);}
	.st16{fill:url(#XMLID_58_);}
	.st17{fill:url(#XMLID_60_);}
	.st18{fill:url(#XMLID_61_);}
	.st19{fill:url(#XMLID_62_);}
	.st20{fill:url(#XMLID_63_);}
	.st21{fill:#FEFEFE;}
	.st22{fill:#EAEAEA;}
	.st23{fill:#A6A8AB;}
	.st24{fill:#EFCE72;}
	.st25{fill:#636977;}
	.st26{fill:#D9DADA;}
	.st27{fill:#EFB065;}
	.st28{fill:#EB5757;}
	.st29{fill:#FBC774;}
	.st30{fill:#E39C49;}
	.st31{fill:#F0D6AA;}
	.st32{fill:#D6B69D;}
	.st33{fill:#C3A386;}
	.st34{fill:#5F6166;}
	.st35{fill:url(#XMLID_64_);}
	.st36{fill:#BDBDC0;}
	.st37{fill:#4D74AC;}
	.st38{fill:#FBFBFB;}
</style>
<g id="XMLID_3194_">
	<g id="XMLID_3541_">
		<path id="XMLID_3263_" class="st0" d="M271.8,53.1l-14.4-30.7c-0.6-1.2-1.8-1.9-3.1-1.9c-0.5,0-1,0.1-1.4,0.3l-12.8,6
			c-1.7,0.8-2.4,2.8-1.6,4.5l14.4,30.7c0.5,1,1.5,1.7,2.6,1.7c0.4,0,0.8-0.1,1.2-0.3l13.7-6.4C271.8,56.2,272.4,54.5,271.8,53.1z"/>
		<g id="XMLID_3542_">
			<g id="XMLID_3544_">
				<g id="XMLID_3550_">
					<g id="XMLID_3555_">
						<path id="XMLID_3262_" class="st1" d="M270.8,55.2l-13.7,6.4c-1.3,0.6-2.9,0-3.5-1.3l-14.4-30.7c-0.7-1.6-0.1-3.4,1.5-4.2
							l12.8-6c1.6-0.7,3.4-0.1,4.2,1.5L272,51.7C272.6,53,272.1,54.6,270.8,55.2z"/>
					</g>
					<g id="XMLID_3551_">
						<path id="XMLID_3552_" class="st2" d="M256,62.1c-1.1,0-2.1-0.7-2.6-1.7L239,29.8c-0.8-1.7-0.1-3.7,1.6-4.5l12.8-6
							c0.5-0.2,0.9-0.3,1.4-0.3c1.3,0,2.5,0.8,3.1,1.9l14.4,30.7c0.7,1.4,0.1,3.2-1.4,3.8l-13.7,6.4C256.8,62,256.4,62.1,256,62.1z
							 M254.8,19.5c-0.4,0-0.8,0.1-1.2,0.3l-12.8,6c-1.4,0.7-2.1,2.4-1.4,3.8l14.4,30.7c0.4,0.8,1.2,1.4,2.2,1.4
							c0.4,0,0.7-0.1,1-0.2l13.7-6.4c1.2-0.6,1.7-2,1.2-3.2l-14.4-30.7C256.9,20.1,255.9,19.5,254.8,19.5z"/>
					</g>
				</g>
				<path id="XMLID_1909_" class="st3" d="M270.1,49.7l-16.8,7.9L240.8,31c-0.2-0.5,0-1.1,0.5-1.3l15-7c0.5-0.2,1.1,0,1.3,0.5
					L270.1,49.7z"/>
				<path id="XMLID_3259_" class="st4" d="M249.5,23.9l-3,1.4c-0.1,0-0.1,0-0.2-0.1l0,0c0-0.1,0-0.1,0.1-0.2l3-1.4
					c0.1,0,0.1,0,0.2,0.1l0,0C249.6,23.8,249.6,23.9,249.5,23.9z"/>
				
					<ellipse id="XMLID_3258_" transform="matrix(0.9049 -0.4256 0.4256 0.9049 12.4453 106.9481)" class="st4" cx="245.6" cy="25.6" rx="0.3" ry="0.3"/>
				<g id="XMLID_3545_">
					
						<ellipse id="XMLID_3257_" transform="matrix(0.9049 -0.4256 0.4256 0.9049 1.157 117.1544)" class="st5" cx="262.8" cy="56" rx="1.5" ry="1.6"/>
				</g>
			</g>
			<path id="XMLID_3256_" class="st6" d="M257.4,22.7l-11.2,19.8l-5.6-11.9c0,0-0.1-0.5,0.2-0.6s15.9-7.5,15.9-7.5
				S257.2,22.3,257.4,22.7z"/>
		</g>
	</g>
	<g id="XMLID_3526_">
		<path id="XMLID_3255_" class="st0" d="M254.2,71.1l-38.1-11.5c-1.8-0.5-3.7,0.5-4.2,2.3l-15.7,52c-0.5,1.8,0.5,3.7,2.3,4.2
			l38.1,11.5c1.8,0.5,3.7-0.5,4.2-2.3l15.7-52C257,73.5,255.9,71.6,254.2,71.1z"/>
		<g id="XMLID_3527_">
			<g id="XMLID_3533_">
				<path id="XMLID_3254_" class="st2" d="M239.7,125.8c-0.5,1.8-2.4,2.8-4.2,2.3l-38.1-11.5c-1.8-0.5-2.8-2.4-2.3-4.2l15.7-52
					c0.5-1.8,2.4-2.8,4.2-2.3l38.1,11.5c1.8,0.5,2.8,2.4,2.3,4.2L239.7,125.8z"/>
				<path id="XMLID_3253_" class="st1" d="M239.2,125.7c-0.5,1.5-2.1,2.4-3.6,1.9L197.5,116c-1.5-0.5-2.4-2.1-1.9-3.6l15.7-52
					c0.5-1.5,2.1-2.4,3.6-1.9L253,70.1c1.5,0.5,2.4,2.1,1.9,3.6L239.2,125.7z"/>
			</g>
			
				<rect id="XMLID_3252_" x="203.5" y="67.2" transform="matrix(0.9567 0.2911 -0.2911 0.9567 36.6681 -61.6309)" class="st3" width="44" height="50.5"/>
			<polygon id="XMLID_3251_" class="st6" points="253.9,74.7 202.3,93 211.8,61.8 			"/>
			<circle id="XMLID_3250_" class="st5" cx="217.3" cy="119.3" r="2"/>
			<path id="XMLID_1699_" class="st4" d="M236.2,67.5l-5.8-1.8c-0.1,0-0.1-0.1-0.1-0.2l0,0c0-0.1,0.1-0.1,0.2-0.1l5.8,1.8
				c0.1,0,0.1,0.1,0.1,0.2l0,0C236.4,67.5,236.3,67.5,236.2,67.5z"/>
			<circle id="XMLID_3249_" class="st4" cx="229.4" cy="65.3" r="0.3"/>
		</g>
	</g>
	<g id="XMLID_3484_">
		<path id="XMLID_3248_" class="st0" d="M117.4,92.5l-3.9,0c-0.1-0.2-0.2-0.3-0.4-0.3c-0.2,0-0.3,0.1-0.4,0.3l-2.6,0
			c-0.1-0.2-0.2-0.3-0.4-0.3c-0.2,0-0.3,0.1-0.4,0.3l-2.6,0c-0.1-0.2-0.2-0.3-0.4-0.3c-0.2,0-0.3,0.1-0.4,0.3l-2.6,0
			c-0.1-0.2-0.2-0.3-0.4-0.3c-0.2,0-0.3,0.1-0.4,0.3l-2.6,0c-0.1-0.2-0.2-0.3-0.4-0.3c-0.2,0-0.3,0.1-0.4,0.3l-2.6,0
			c-0.1-0.2-0.2-0.3-0.4-0.3c-0.2,0-0.3,0.1-0.4,0.3l-2.6,0c-0.1-0.2-0.2-0.3-0.4-0.3c-0.2,0-0.3,0.1-0.4,0.3l-2.6,0
			c-0.1-0.2-0.2-0.3-0.4-0.3c-0.2,0-0.3,0.1-0.4,0.3l-2.6,0C86.1,92.1,86,92,85.8,92c-0.2,0-0.3,0.1-0.4,0.3l-3.9,0
			c-0.7,0-1.3,0.6-1.3,1.3l-0.4,49.2c0,0.7,0.6,1.3,1.3,1.3l35.9,0.3c0.7,0,1.3-0.6,1.3-1.3l0.4-49.2
			C118.7,93.1,118.1,92.6,117.4,92.5z"/>
		<g id="XMLID_3485_">
			<g id="XMLID_3486_">
				<g id="XMLID_3487_">
					<path id="XMLID_3247_" class="st7" d="M117.3,142.1c0,0.7-0.6,1.3-1.3,1.3l-35.9-0.3c-0.7,0-1.3-0.6-1.3-1.3l0.4-49.2
						c0-0.7,0.6-1.3,1.3-1.3l35.9,0.3c0.7,0,1.3,0.6,1.3,1.3L117.3,142.1z"/>
					<path id="XMLID_3246_" class="st8" d="M82.7,140.8c-1,0-1.8-0.8-1.8-1.9l0.3-43.3c0-1,0.8-1.8,1.9-1.8l30.8,0.2
						c1,0,1.8,0.8,1.8,1.9l-0.3,43.3c0,1-0.8,1.8-1.9,1.8L82.7,140.8z"/>
					<path id="XMLID_3245_" class="st9" d="M82.7,140.5c-1,0-1.8-0.8-1.8-1.9l0.3-43.3c0-1,0.8-1.8,1.9-1.8l30.8,0.2
						c1,0,1.8,0.8,1.8,1.9l-0.3,43.3c0,1-0.8,1.8-1.9,1.8L82.7,140.5z"/>
					<path id="XMLID_3244_" class="st10" d="M81.2,95l0,0.8c0-1,0.8-1.8,1.9-1.8l30.8,0.2c1,0,1.8,0.8,1.8,1.9l0-0.8
						c0-1-0.8-1.9-1.8-1.9l-30.8-0.2C82,93.2,81.2,94,81.2,95z"/>
					<path id="XMLID_3243_" class="st5" d="M82.7,140.1c-1,0-1.8-0.8-1.8-1.9L81.2,95c0-1,0.8-1.8,1.9-1.8l30.8,0.2
						c1,0,1.8,0.8,1.8,1.9l-0.3,43.3c0,1-0.8,1.8-1.9,1.8L82.7,140.1z"/>
					<g id="XMLID_3488_">
						<g id="XMLID_3513_">
							<circle id="XMLID_3242_" class="st11" cx="112.1" cy="95.2" r="0.6"/>
							
								<linearGradient id="XMLID_54_" gradientUnits="userSpaceOnUse" x1="7433.167" y1="2326.8206" x2="7429.1753" y2="2326.8206" gradientTransform="matrix(7.700000e-003 -1 -1 -7.700000e-003 2381.6982 7542.3589)">
								<stop  offset="0" style="stop-color:#DCDDDE"/>
								<stop  offset="1" style="stop-color:#A7A9AC"/>
							</linearGradient>
							<path id="XMLID_3241_" class="st12" d="M112.1,91.3c-0.3,0-0.5,0.2-0.5,0.5l0,3.3c0,0.3,0.2,0.5,0.5,0.5l0,0
								c0.3,0,0.5-0.2,0.5-0.5l0-3.3C112.6,91.5,112.4,91.3,112.1,91.3L112.1,91.3z"/>
						</g>
						<g id="XMLID_3510_">
							<circle id="XMLID_3240_" class="st11" cx="108.7" cy="95.1" r="0.6"/>
							
								<linearGradient id="XMLID_55_" gradientUnits="userSpaceOnUse" x1="7433.1675" y1="2330.2351" x2="7429.1772" y2="2330.2351" gradientTransform="matrix(7.700000e-003 -1 -1 -7.700000e-003 2381.6982 7542.3589)">
								<stop  offset="0" style="stop-color:#DCDDDE"/>
								<stop  offset="1" style="stop-color:#A7A9AC"/>
							</linearGradient>
							<path id="XMLID_3239_" class="st13" d="M108.7,91.2c-0.3,0-0.5,0.2-0.5,0.5l0,3.3c0,0.3,0.2,0.5,0.5,0.5l0,0
								c0.3,0,0.5-0.2,0.5-0.5l0-3.3C109.2,91.5,109,91.3,108.7,91.2L108.7,91.2z"/>
						</g>
						<g id="XMLID_3507_">
							<circle id="XMLID_3238_" class="st11" cx="105.3" cy="95.1" r="0.6"/>
							
								<linearGradient id="XMLID_56_" gradientUnits="userSpaceOnUse" x1="7433.167" y1="2333.6506" x2="7429.1763" y2="2333.6506" gradientTransform="matrix(7.700000e-003 -1 -1 -7.700000e-003 2381.6982 7542.3589)">
								<stop  offset="0" style="stop-color:#DCDDDE"/>
								<stop  offset="1" style="stop-color:#A7A9AC"/>
							</linearGradient>
							<path id="XMLID_3237_" class="st14" d="M105.3,91.2c-0.3,0-0.5,0.2-0.5,0.5l0,3.3c0,0.3,0.2,0.5,0.5,0.5l0,0
								c0.3,0,0.5-0.2,0.5-0.5l0-3.3C105.7,91.4,105.5,91.2,105.3,91.2L105.3,91.2z"/>
						</g>
						<g id="XMLID_3504_">
							<circle id="XMLID_3236_" class="st11" cx="101.8" cy="95.1" r="0.6"/>
							
								<linearGradient id="XMLID_57_" gradientUnits="userSpaceOnUse" x1="7433.1689" y1="2337.0635" x2="7429.1763" y2="2337.0635" gradientTransform="matrix(7.700000e-003 -1 -1 -7.700000e-003 2381.6982 7542.3589)">
								<stop  offset="0" style="stop-color:#DCDDDE"/>
								<stop  offset="1" style="stop-color:#A7A9AC"/>
							</linearGradient>
							<path id="XMLID_3235_" class="st15" d="M101.9,91.2c-0.3,0-0.5,0.2-0.5,0.5l0,3.3c0,0.3,0.2,0.5,0.5,0.5l0,0
								c0.3,0,0.5-0.2,0.5-0.5l0-3.3C102.3,91.4,102.1,91.2,101.9,91.2L101.9,91.2z"/>
						</g>
						<g id="XMLID_3501_">
							<path id="XMLID_3234_" class="st11" d="M98.4,94.5c-0.3,0-0.6,0.3-0.6,0.6c0,0.3,0.3,0.6,0.6,0.6c0.3,0,0.6-0.3,0.6-0.6
								C99,94.7,98.8,94.5,98.4,94.5z"/>
							
								<linearGradient id="XMLID_58_" gradientUnits="userSpaceOnUse" x1="7433.167" y1="2340.4785" x2="7429.1772" y2="2340.4785" gradientTransform="matrix(7.700000e-003 -1 -1 -7.700000e-003 2381.6982 7542.3589)">
								<stop  offset="0" style="stop-color:#DCDDDE"/>
								<stop  offset="1" style="stop-color:#A7A9AC"/>
							</linearGradient>
							<path id="XMLID_3233_" class="st16" d="M98.5,91.2c-0.3,0-0.5,0.2-0.5,0.5l0,3.3c0,0.3,0.2,0.5,0.5,0.5l0,0
								c0.3,0,0.5-0.2,0.5-0.5l0-3.3C98.9,91.4,98.7,91.2,98.5,91.2L98.5,91.2z"/>
						</g>
						<g id="XMLID_3498_">
							<circle id="XMLID_3232_" class="st11" cx="95" cy="95" r="0.6"/>
							
								<linearGradient id="XMLID_60_" gradientUnits="userSpaceOnUse" x1="7433.167" y1="2343.894" x2="7429.1772" y2="2343.894" gradientTransform="matrix(7.700000e-003 -1 -1 -7.700000e-003 2381.6982 7542.3589)">
								<stop  offset="0" style="stop-color:#DCDDDE"/>
								<stop  offset="1" style="stop-color:#A7A9AC"/>
							</linearGradient>
							<path id="XMLID_3231_" class="st17" d="M95,91.1c-0.3,0-0.5,0.2-0.5,0.5l0,3.3c0,0.3,0.2,0.5,0.5,0.5l0,0
								c0.3,0,0.5-0.2,0.5-0.5l0-3.3C95.5,91.4,95.3,91.1,95,91.1L95,91.1z"/>
						</g>
						<g id="XMLID_3495_">
							<path id="XMLID_3229_" class="st11" d="M91.6,94.4c-0.3,0-0.6,0.3-0.6,0.6c0,0.3,0.3,0.6,0.6,0.6c0.3,0,0.6-0.3,0.6-0.6
								C92.2,94.7,91.9,94.4,91.6,94.4z"/>
							
								<linearGradient id="XMLID_61_" gradientUnits="userSpaceOnUse" x1="7433.168" y1="2347.3086" x2="7429.1782" y2="2347.3086" gradientTransform="matrix(7.700000e-003 -1 -1 -7.700000e-003 2381.6982 7542.3589)">
								<stop  offset="0" style="stop-color:#DCDDDE"/>
								<stop  offset="1" style="stop-color:#A7A9AC"/>
							</linearGradient>
							<path id="XMLID_3228_" class="st18" d="M91.6,91.1c-0.3,0-0.5,0.2-0.5,0.5l0,3.3c0,0.3,0.2,0.5,0.5,0.5l0,0
								c0.3,0,0.5-0.2,0.5-0.5l0-3.3C92.1,91.3,91.9,91.1,91.6,91.1L91.6,91.1z"/>
						</g>
						<g id="XMLID_3492_">
							<circle id="XMLID_3225_" class="st11" cx="88.2" cy="95" r="0.6"/>
							
								<linearGradient id="XMLID_62_" gradientUnits="userSpaceOnUse" x1="7433.1689" y1="2350.7229" x2="7429.1758" y2="2350.7229" gradientTransform="matrix(7.700000e-003 -1 -1 -7.700000e-003 2381.6982 7542.3589)">
								<stop  offset="0" style="stop-color:#DCDDDE"/>
								<stop  offset="1" style="stop-color:#A7A9AC"/>
							</linearGradient>
							<path id="XMLID_3224_" class="st19" d="M88.2,91.1c-0.3,0-0.5,0.2-0.5,0.5l0,3.3c0,0.3,0.2,0.5,0.5,0.5l0,0
								c0.3,0,0.5-0.2,0.5-0.5l0-3.3C88.7,91.3,88.5,91.1,88.2,91.1L88.2,91.1z"/>
						</g>
						<g id="XMLID_3489_">
							<path id="XMLID_3223_" class="st11" d="M84.8,94.4c-0.3,0-0.6,0.3-0.6,0.6c0,0.3,0.3,0.6,0.6,0.6c0.3,0,0.6-0.3,0.6-0.6
								C85.4,94.6,85.1,94.4,84.8,94.4z"/>
							
								<linearGradient id="XMLID_63_" gradientUnits="userSpaceOnUse" x1="7433.1694" y1="2354.1362" x2="7429.1777" y2="2354.1362" gradientTransform="matrix(7.700000e-003 -1 -1 -7.700000e-003 2381.6982 7542.3589)">
								<stop  offset="0" style="stop-color:#DCDDDE"/>
								<stop  offset="1" style="stop-color:#A7A9AC"/>
							</linearGradient>
							<path id="XMLID_3222_" class="st20" d="M84.8,91.1c-0.3,0-0.5,0.2-0.5,0.5l0,3.3c0,0.3,0.2,0.5,0.5,0.5l0,0
								c0.3,0,0.5-0.2,0.5-0.5l0-3.3C85.3,91.3,85.1,91.1,84.8,91.1L84.8,91.1z"/>
						</g>
					</g>
				</g>
			</g>
		</g>
	</g>
	<g id="XMLID_3363_">
		<path id="XMLID_3417_" class="st0" d="M289.7,68.9l-1-0.1l0-0.4l-3.3-0.4l-0.1,0.7c-10.7-0.5-17.3,5.8-19.2,7.9c0,0,0,0,0,0
			c-0.3,0.2-0.6,0.5-0.8,0.8c-0.3,0.2-0.5,0.4-0.8,0.6c-5.5,4.7-6.7,12.2-2.8,16.8c1,1.2,2.2,2,3.6,2.6c3.7,2.2,8.8,1.8,13.1-1
			c-1.7,1.8-3.8,3.6-6.6,5l-0.7-1.7l-5,2.2L265,100l-10.6,4.6l0.4,0.8l-1.8,0.8l0.3,0.8l-1.6,0.7l-1,0.4h0l-0.1,0.1
			c-0.2,0.1-0.2,0.3-0.2,0.4l0.1,0.3c0.1,0.2,0.3,0.2,0.4,0.2l0.1-0.1l0,0l1.2-0.5l0,0l1.4-0.6l1.4,3.1l-2.7,1.2
			c-0.2,0.1-0.2,0.3-0.2,0.4l0.1,0.3c0.1,0.2,0.3,0.2,0.4,0.2l0.1-0.1h0l1.2-0.5l0,0l1.4-0.6l0.3,0.8l1.8-0.8l0.4,0.9l10.6-4.6
			l-1-2.3l5-2.3l-0.6-1.2c5-2.5,8.1-6.2,10-9.4c1.4-1.9,2.3-4,2.7-6.1c1.2-3.6,0.7-7.5-1.6-10.3c-2.9-3.4-7.9-4.3-12.5-2.5
			c3.2-2.2,8.1-4.5,14.6-4.3l-0.1,0.7l3.3,0.4l0-0.3l1.1,0.1c0.3,0,0.6-0.2,0.6-0.5l0.1-0.6C290.2,69.3,290,69,289.7,68.9z
			 M263.5,94.8c-1-1.2-1.7-2.7-1.9-4.2c0.4,1,0.9,2,1.7,2.9c2.4,2.8,6.2,3.9,10,3.2c-2.6,0.8-5.3,0.8-7.6-0.1
			C264.8,96.1,264.1,95.5,263.5,94.8z M278.6,94.7c0.3-0.2,0.6-0.5,0.8-0.8c0.3-0.2,0.5-0.4,0.8-0.6c0.3-0.2,0.5-0.5,0.8-0.7
			c-0.6,0.7-1.2,1.3-1.9,2c-1.3,1.1-2.8,2-4.4,2.5C276.1,96.5,277.4,95.8,278.6,94.7z M283.9,85.8c-0.1,0.5-0.3,1.1-0.5,1.9
			c-0.1,0.2-0.2,0.4-0.3,0.6c0.7-2.1,0.9-4.2,0.4-6.1C283.8,83.3,284,84.5,283.9,85.8z M280.7,78.6c3.4,4,2.5,10.3-1.9,14.7
			c-5,3.7-11.4,3.5-14.8-0.4c-1.7-2-2.3-4.7-1.9-7.4c0.7-2.2,2.1-4.3,4.1-6c3.8-3.2,8.7-4.1,12.4-2.6
			C279.4,77.3,280.1,77.9,280.7,78.6z M265.6,78.7c-0.3,0.2-0.5,0.5-0.8,0.7c0.3-0.4,0.7-0.8,1.1-1.2c0.1-0.1,0.3-0.2,0.4-0.3l0,0
			c0,0,0,0,0,0c1-0.7,2-1.2,3.1-1.6C268.1,76.9,266.8,77.6,265.6,78.7z M261.6,83.1c-0.2,0.7-0.4,1.4-0.5,2.1
			c-0.7,2-0.8,4.1-0.4,6.1C259.9,88.7,260.3,85.8,261.6,83.1z M282.3,77.2c1,1.2,1.7,2.7,1.9,4.2c-0.4-1-0.9-2-1.7-2.9
			c-1-1.2-2.2-2-3.6-2.6c-2.2-1.3-4.9-1.7-7.6-1.2C275.5,73.4,279.8,74.2,282.3,77.2z"/>
		<g id="XMLID_3364_">
			<g id="XMLID_3401_">
				<g id="XMLID_3406_">
					<g id="XMLID_3409_">
						<path id="XMLID_1698_" class="st21" d="M256.7,109.8L256.7,109.8c0.1,0.3,0,0.5-0.3,0.7l-3.6,1.6c-0.3,0.1-0.5,0-0.7-0.3v0
							c-0.1-0.3,0-0.5,0.3-0.7l3.6-1.6C256.3,109.5,256.6,109.6,256.7,109.8z"/>
						<path id="XMLID_1697_" class="st21" d="M254.9,105.8L254.9,105.8c0.1,0.3,0,0.5-0.3,0.7l-3.6,1.6c-0.3,0.1-0.5,0-0.7-0.3l0,0
							c-0.1-0.3,0-0.5,0.3-0.7l3.6-1.6C254.5,105.4,254.8,105.6,254.9,105.8z"/>
					</g>
					<path id="XMLID_3211_" class="st22" d="M253.6,110.6l-1.2,0.5c-0.3,0.1-0.4,0.4-0.3,0.7c0.1,0.3,0.4,0.4,0.7,0.3l1.2-0.5
						L253.6,110.6z"/>
					<path id="XMLID_3210_" class="st22" d="M251.9,106.6l-1.2,0.5c-0.3,0.1-0.4,0.4-0.3,0.7c0.1,0.3,0.4,0.4,0.7,0.3l1.2-0.5
						L251.9,106.6z"/>
				</g>
				
					<rect id="XMLID_3207_" x="252.5" y="105.9" transform="matrix(-0.3981 -0.9174 0.9174 -0.3981 259.1044 385.4752)" class="st22" width="7.1" height="3.7"/>
				
					<rect id="XMLID_3206_" x="257" y="99.6" transform="matrix(-0.3981 -0.9174 0.9174 -0.3981 268.8525 387.2017)" class="st1" width="8.9" height="11.6"/>
			</g>
			<g id="XMLID_3388_">
				<g id="XMLID_3397_">
					<path id="XMLID_3398_" class="st1" d="M261.6,93.9c-3.9-4.6-2.7-12.1,2.8-16.8c5.5-4.7,13.1-4.7,17-0.1
						c3.9,4.6,2.7,12.1-2.8,16.8C273.2,98.4,265.5,98.5,261.6,93.9z M280.7,77.6c-3.6-4.2-10.6-4.1-15.7,0.2
						c-5.1,4.3-6.3,11.2-2.7,15.4c3.6,4.2,10.6,4.1,15.7-0.2C283.1,88.7,284.3,81.8,280.7,77.6z"/>
				</g>
				<g id="XMLID_3393_">
					<path id="XMLID_3394_" class="st1" d="M263.3,92.5c-3.9-4.6-2.7-12.1,2.8-16.8c5.5-4.7,13.1-4.7,17-0.1
						c3.9,4.6,2.7,12.1-2.8,16.8C274.8,97,267.2,97.1,263.3,92.5z M282.3,76.2c-3.6-4.2-10.6-4.1-15.7,0.2
						c-5.1,4.3-6.3,11.2-2.7,15.4c3.6,4.2,10.6,4.1,15.7-0.2C284.7,87.3,285.9,80.4,282.3,76.2z"/>
				</g>
				<g id="XMLID_3389_">
					<path id="XMLID_3390_" class="st1" d="M262.8,94.5c-3.9-4.6-2.7-12.1,2.8-16.8c5.5-4.7,13.1-4.7,17-0.1
						c3.9,4.6,2.7,12.1-2.8,16.8C274.3,99,266.7,99.1,262.8,94.5z M281.9,78.2c-3.6-4.2-10.6-4.1-15.7,0.2
						c-5.1,4.3-6.3,11.2-2.7,15.4c3.6,4.2,10.6,4.1,15.7-0.2C284.2,89.3,285.4,82.4,281.9,78.2z"/>
				</g>
			</g>
			<g id="XMLID_3386_">
				<path id="XMLID_3150_" class="st1" d="M265.5,76.3c0.1-0.1,7.1-9.3,20.1-8.5l-0.1,1c-12.4-0.7-19.2,8-19.2,8.1L265.5,76.3z"/>
			</g>
			<g id="XMLID_3384_">
				<path id="XMLID_3149_" class="st1" d="M285,84.1c0,0.1-1.5,11.6-13.1,17.4l-0.4-0.9C282.6,95,284,84.1,284,84L285,84.1z"/>
			</g>
			<g id="XMLID_3381_">
				
					<rect id="XMLID_3146_" x="267" y="99" transform="matrix(0.4095 0.9123 -0.9123 0.4095 251.871 -185.3321)" class="st1" width="4.1" height="5.8"/>
				
					<rect id="XMLID_3145_" x="268.8" y="101.4" transform="matrix(0.4095 0.9123 -0.9123 0.4095 251.8792 -185.3326)" class="st23" width="0.7" height="1"/>
			</g>
			<g id="XMLID_3365_">
				<g id="XMLID_3369_">
					<path id="XMLID_1696_" class="st23" d="M287.3,68.6L287.3,68.6c0.1-0.5,0.5-0.8,1-0.8l1.1,0.1c0.5,0.1,0.8,0.5,0.8,1v0
						c-0.1,0.5-0.5,0.8-1,0.8l-1.1-0.1C287.6,69.5,287.2,69,287.3,68.6z"/>
					<path id="XMLID_2200_" class="st1" d="M288.8,69l0.1-0.5c0-0.2,0.2-0.4,0.5-0.4l0,0c0.2,0,0.4,0.2,0.4,0.5l-0.1,0.5
						c0,0.2-0.2,0.4-0.5,0.4l0,0C289,69.4,288.8,69.2,288.8,69z"/>
					<g id="XMLID_3370_">
						<g id="XMLID_3371_">
							<path id="XMLID_2282_" class="st24" d="M289.1,68.4L289.1,68.4C289.1,68.4,289.2,68.4,289.1,68.4l0.4,0c0,0,0,0,0,0v0
								c0,0,0,0,0,0L289.1,68.4C289.1,68.4,289.1,68.4,289.1,68.4z"/>
							<path id="XMLID_3144_" class="st24" d="M289.1,68.5L289.1,68.5C289.1,68.5,289.1,68.5,289.1,68.5l0.4,0c0,0,0,0,0,0l0,0
								c0,0,0,0,0,0L289.1,68.5C289.1,68.6,289.1,68.6,289.1,68.5z"/>
							<path id="XMLID_3142_" class="st24" d="M289.1,68.7L289.1,68.7C289.1,68.7,289.1,68.7,289.1,68.7l0.4,0c0,0,0,0,0,0l0,0
								c0,0,0,0,0,0L289.1,68.7C289.1,68.7,289.1,68.7,289.1,68.7z"/>
							<path id="XMLID_3141_" class="st24" d="M289.1,68.9L289.1,68.9C289.1,68.8,289.1,68.8,289.1,68.9l0.4,0c0,0,0,0,0,0l0,0
								c0,0,0,0,0,0L289.1,68.9C289.1,68.9,289.1,68.9,289.1,68.9z"/>
							<path id="XMLID_3140_" class="st24" d="M289.1,69L289.1,69C289.1,69,289.1,69,289.1,69l0.4,0c0,0,0,0,0,0l0,0c0,0,0,0,0,0
								L289.1,69C289.1,69,289.1,69,289.1,69z"/>
							<path id="XMLID_2288_" class="st24" d="M289,69.2L289,69.2C289.1,69.2,289.1,69.1,289,69.2l0.4,0c0,0,0,0,0,0l0,0
								c0,0,0,0,0,0L289,69.2C289.1,69.2,289,69.2,289,69.2z"/>
						</g>
					</g>
				</g>
				<g id="XMLID_3366_">
					
						<rect id="XMLID_3139_" x="285.6" y="66.8" transform="matrix(-0.1235 0.9923 -0.9923 -0.1235 390.2193 -207.7301)" class="st1" width="2.4" height="3.3"/>
					
						<rect id="XMLID_3138_" x="286.6" y="68.2" transform="matrix(-0.1235 0.9924 -0.9924 -0.1235 390.1998 -207.7374)" class="st23" width="0.4" height="0.6"/>
				</g>
			</g>
		</g>
	</g>
	<g id="XMLID_3307_">
		<path id="XMLID_3135_" class="st0" d="M158.5,98.2l-21.7,14.1c-1.5,0.9-1.9,2.9-0.9,4.3l19.9,30.6c0.9,1.5,2.9,1.9,4.3,0.9
			l21.7-14.1c1.5-0.9,1.9-2.9,0.9-4.3l-19.9-30.6C161.9,97.6,159.9,97.2,158.5,98.2z"/>
		<g id="XMLID_3308_">
			<g id="XMLID_3353_">
				<g id="XMLID_3358_">
					<path id="XMLID_3134_" class="st7" d="M180.2,133.3l-21.7,14.1c-1.2,0.8-2.9,0.4-3.7-0.8l-19.9-30.6c-0.8-1.2-0.4-2.9,0.8-3.7
						l21.7-14.1c1.2-0.8,2.9-0.4,3.7,0.8l19.9,30.6C181.8,130.9,181.4,132.5,180.2,133.3z"/>
				</g>
				<g id="XMLID_3354_">
					<path id="XMLID_3355_" class="st25" d="M180.5,133.7l-21.7,14.1c-1.5,0.9-3.4,0.5-4.3-0.9l-19.9-30.6c-0.9-1.5-0.5-3.4,0.9-4.3
						l21.7-14.1c1.5-0.9,3.4-0.5,4.3,0.9l19.9,30.6C182.3,130.9,181.9,132.8,180.5,133.7z M136,112.8c-1,0.7-1.3,2-0.6,3l19.9,30.6
						c0.7,1,2,1.3,3,0.6l21.7-14.1c1-0.7,1.3-2,0.6-3l-19.9-30.6c-0.7-1-2-1.3-3-0.6L136,112.8z"/>
				</g>
			</g>
			<g id="XMLID_3314_">
				<g id="XMLID_3337_">
					<path id="XMLID_3131_" class="st26" d="M148.9,125.8l-3,2c-0.4,0.3-1,0.2-1.3-0.3l-0.7-1c-0.3-0.4-0.2-1,0.3-1.3l3-2
						c0.4-0.3,1-0.2,1.3,0.3l0.7,1C149.5,125,149.4,125.5,148.9,125.8z"/>
					<path id="XMLID_3130_" class="st26" d="M155.1,121.8l-3,2c-0.4,0.3-1,0.2-1.3-0.3l-0.7-1c-0.3-0.4-0.2-1,0.3-1.3l3-2
						c0.4-0.3,1-0.2,1.3,0.3l0.7,1C155.6,121,155.5,121.5,155.1,121.8z"/>
					<path id="XMLID_3129_" class="st26" d="M161.2,117.8l-3,2c-0.4,0.3-1,0.2-1.3-0.3l-0.7-1c-0.3-0.4-0.2-1,0.3-1.3l3-2
						c0.4-0.3,1-0.2,1.3,0.3l0.7,1C161.7,117,161.6,117.5,161.2,117.8z"/>
					<path id="XMLID_3128_" class="st27" d="M167.3,113.8l-3,2c-0.4,0.3-1,0.2-1.3-0.3l-0.7-1c-0.3-0.4-0.2-1,0.3-1.3l3-2
						c0.4-0.3,1-0.2,1.3,0.3l0.7,1C167.8,113,167.7,113.6,167.3,113.8z"/>
				</g>
				<g id="XMLID_3331_">
					<path id="XMLID_3127_" class="st1" d="M151.7,130.1l-3,2c-0.4,0.3-1,0.2-1.3-0.3l-0.7-1c-0.3-0.4-0.2-1,0.3-1.3l3-2
						c0.4-0.3,1-0.2,1.3,0.3l0.7,1C152.3,129.3,152.2,129.8,151.7,130.1z"/>
					<path id="XMLID_3126_" class="st1" d="M157.9,126.1l-3,2c-0.4,0.3-1,0.2-1.3-0.3l-0.7-1c-0.3-0.4-0.2-1,0.3-1.3l3-2
						c0.4-0.3,1-0.2,1.3,0.3l0.7,1C158.4,125.3,158.3,125.8,157.9,126.1z"/>
					<path id="XMLID_3125_" class="st1" d="M164,122.1l-3,2c-0.4,0.3-1,0.2-1.3-0.3l-0.7-1c-0.3-0.4-0.2-1,0.3-1.3l3-2
						c0.4-0.3,1-0.2,1.3,0.3l0.7,1C164.5,121.3,164.4,121.9,164,122.1z"/>
					<path id="XMLID_3123_" class="st28" d="M170.1,118.1l-3,2c-0.4,0.3-1,0.2-1.3-0.3l-0.7-1c-0.3-0.4-0.2-1,0.3-1.3l3-2
						c0.4-0.3,1-0.2,1.3,0.3l0.7,1C170.6,117.3,170.5,117.9,170.1,118.1z"/>
				</g>
				<g id="XMLID_3325_">
					<path id="XMLID_3122_" class="st1" d="M154.6,134.4l-3,2c-0.4,0.3-1,0.2-1.3-0.3l-0.7-1c-0.3-0.4-0.2-1,0.3-1.3l3-2
						c0.4-0.3,1-0.2,1.3,0.3l0.7,1C155.1,133.6,155,134.1,154.6,134.4z"/>
					<path id="XMLID_3121_" class="st1" d="M160.7,130.4l-3,2c-0.4,0.3-1,0.2-1.3-0.3l-0.7-1c-0.3-0.4-0.2-1,0.3-1.3l3-2
						c0.4-0.3,1-0.2,1.3,0.3l0.7,1C161.2,129.6,161.1,130.2,160.7,130.4z"/>
					<path id="XMLID_3120_" class="st1" d="M166.8,126.4l-3,2c-0.4,0.3-1,0.2-1.3-0.3l-0.7-1c-0.3-0.4-0.2-1,0.3-1.3l3-2
						c0.4-0.3,1-0.2,1.3,0.3l0.7,1C167.3,125.6,167.2,126.2,166.8,126.4z"/>
					<path id="XMLID_3119_" class="st1" d="M172.9,122.5l-3,2c-0.4,0.3-1,0.2-1.3-0.3l-0.7-1c-0.3-0.4-0.2-1,0.3-1.3l3-2
						c0.4-0.3,1-0.2,1.3,0.3l0.7,1C173.5,121.6,173.3,122.2,172.9,122.5z"/>
				</g>
				<g id="XMLID_3320_">
					<path id="XMLID_3118_" class="st1" d="M157.4,138.7l-3,2c-0.4,0.3-1,0.2-1.3-0.3l-0.7-1c-0.3-0.4-0.2-1,0.3-1.3l3-2
						c0.4-0.3,1-0.2,1.3,0.3l0.7,1C157.9,137.9,157.8,138.5,157.4,138.7z"/>
					<path id="XMLID_3115_" class="st1" d="M163.5,134.7l-3,2c-0.4,0.3-1,0.2-1.3-0.3l-0.7-1c-0.3-0.4-0.2-1,0.3-1.3l3-2
						c0.4-0.3,1-0.2,1.3,0.3l0.7,1C164,133.9,163.9,134.5,163.5,134.7z"/>
					<path id="XMLID_3114_" class="st1" d="M169.6,130.8l-3,2c-0.4,0.3-1,0.2-1.3-0.3l-0.7-1c-0.3-0.4-0.2-1,0.3-1.3l3-2
						c0.4-0.3,1-0.2,1.3,0.3l0.7,1C170.1,129.9,170,130.5,169.6,130.8z"/>
					<path id="XMLID_3113_" class="st1" d="M175.7,126.8l-3,2c-0.4,0.3-1,0.2-1.3-0.3l-0.7-1c-0.3-0.4-0.2-1,0.3-1.3l3-2
						c0.4-0.3,1-0.2,1.3,0.3l0.7,1C176.3,125.9,176.1,126.5,175.7,126.8z"/>
				</g>
				<g id="XMLID_3315_">
					<path id="XMLID_3110_" class="st1" d="M160.2,143l-3,2c-0.4,0.3-1,0.2-1.3-0.3l-0.7-1c-0.3-0.4-0.2-1,0.3-1.3l3-2
						c0.4-0.3,1-0.2,1.3,0.3l0.7,1C160.7,142.2,160.6,142.8,160.2,143z"/>
					<path id="XMLID_3109_" class="st1" d="M166.3,139.1l-3,2c-0.4,0.3-1,0.2-1.3-0.3l-0.7-1c-0.3-0.4-0.2-1,0.3-1.3l3-2
						c0.4-0.3,1-0.2,1.3,0.3l0.7,1C166.8,138.2,166.7,138.8,166.3,139.1z"/>
					<path id="XMLID_3108_" class="st1" d="M172.4,135.1l-3,2c-0.4,0.3-1,0.2-1.3-0.3l-0.7-1c-0.3-0.4-0.2-1,0.3-1.3l3-2
						c0.4-0.3,1-0.2,1.3,0.3l0.7,1C172.9,134.2,172.8,134.8,172.4,135.1z"/>
					<path id="XMLID_3107_" class="st1" d="M178.5,131.1l-3,2c-0.4,0.3-1,0.2-1.3-0.3l-0.7-1c-0.3-0.4-0.2-1,0.3-1.3l3-2
						c0.4-0.3,1-0.2,1.3,0.3l0.7,1C179.1,130.2,178.9,130.8,178.5,131.1z"/>
				</g>
			</g>
			<g id="XMLID_3309_">
				<path id="XMLID_1695_" class="st3" d="M162.9,109.9l-18.7,12.2c-1,0.6-2.3,0.4-2.9-0.6l-2.6-4c-0.6-1-0.4-2.3,0.6-2.9l18.7-12.2
					c1-0.6,2.3-0.4,2.9,0.6l2.6,4C164.1,107.9,163.8,109.3,162.9,109.9z"/>
				<path id="XMLID_3310_" class="st25" d="M163.9,109.5l-20.6,13.4c-0.6,0.4-1.4,0.2-1.8-0.4l-3.8-5.8c-0.4-0.6-0.2-1.4,0.4-1.8
					l20.6-13.4c0.6-0.4,1.4-0.2,1.8,0.4l3.8,5.8C164.7,108.3,164.5,109.1,163.9,109.5z M138.4,115.3c-0.4,0.2-0.5,0.7-0.2,1.1
					l3.8,5.8c0.2,0.4,0.7,0.5,1.1,0.2l20.6-13.4c0.4-0.2,0.5-0.7,0.2-1.1l-3.8-5.8c-0.2-0.4-0.7-0.5-1.1-0.2L138.4,115.3z"/>
			</g>
		</g>
	</g>
	<g id="XMLID_3297_">
		<g id="XMLID_3298_">
			<g id="XMLID_3303_">
				
					<rect id="XMLID_3102_" x="163.1" y="69.1" transform="matrix(0.2592 -0.9658 0.9658 0.2592 34.5656 224.3718)" class="st29" width="0.9" height="41"/>
				
					<rect id="XMLID_3101_" x="163.3" y="68.3" transform="matrix(0.2571 -0.9664 0.9664 0.2571 35.8367 224.2343)" class="st27" width="0.9" height="41"/>
				
					<rect id="XMLID_3099_" x="163.6" y="67.4" transform="matrix(0.2585 -0.966 0.966 0.2585 36.6381 223.6471)" class="st30" width="0.9" height="41"/>
			</g>
			<polygon id="XMLID_3098_" class="st31" points="143.8,83.9 138.2,82 143.6,84.8 			"/>
			<polygon id="XMLID_3097_" class="st32" points="138.2,82 144.1,83.1 143.8,83.9 			"/>
			<polygon id="XMLID_3096_" class="st33" points="138.2,82 144.3,82.2 144.1,83.1 			"/>
			<path id="XMLID_3095_" class="st34" d="M139.7,82.3C139.7,82.3,139.7,82.3,139.7,82.3c0,0.1,0,0.2-0.1,0.2c0,0.1-0.1,0.1-0.1,0.2
				l-1.3-0.7l1.5,0.1C139.8,82.1,139.8,82.2,139.7,82.3z"/>
		</g>
	</g>
	<g id="XMLID_3195_">
		
			<linearGradient id="XMLID_64_" gradientUnits="userSpaceOnUse" x1="101.9678" y1="-16142.2305" x2="101.9678" y2="-16260.123" gradientTransform="matrix(1 0 0 -1 0 -16099.0049)">
			<stop  offset="0.3122" style="stop-color:#FFFFFF"/>
			<stop  offset="0.4724" style="stop-color:#FAFAFB"/>
			<stop  offset="0.6503" style="stop-color:#EDEDEE"/>
			<stop  offset="0.8359" style="stop-color:#D7D7D9"/>
			<stop  offset="1" style="stop-color:#BDBDC0"/>
		</linearGradient>
		<polygon id="XMLID_3094_" class="st35" points="0,158.5 86.2,72.3 203.9,43.2 86,161.1 		"/>
		<g id="XMLID_3196_">
			<path id="XMLID_3091_" class="st36" d="M119.3,62.6c1.6,6.9,15.2,15.6,28.8,12.5c13.7-3.1,22.2-16.8,20.6-23.7
				c-1.6-6.9-13.9-10-27.6-6.9C127.5,47.5,117.7,55.6,119.3,62.6z"/>
			<path id="XMLID_3090_" class="st37" d="M119.4,62.2c1.6,6.9,15.1,15.2,28.7,12.1c13.7-3.1,22.3-16.4,20.7-23.3
				c-1.6-6.9-13.9-10-27.6-6.9C127.6,47.1,117.8,55.3,119.4,62.2z"/>
			<path id="XMLID_3065_" class="st3" d="M119.5,61.7c1.6,6.9,15.2,15.6,28.8,12.5c13.7-3.1,22.2-16.8,20.6-23.7
				c-1.6-6.9-13.9-10-27.6-6.9C127.7,46.7,117.9,54.8,119.5,61.7z"/>
			<path id="XMLID_3064_" class="st3" d="M53.7,41.7c0.2,0.9,1.3,1.4,2.5,1.1l159-36.1c1.2-0.3,2-1.2,1.8-2.1l-0.8-3.4
				c-0.2-0.9-1.3-1.4-2.5-1.1l-159,36.1c-1.2,0.3-2,1.2-1.8,2.1L53.7,41.7z"/>
			<path id="XMLID_3061_" class="st36" d="M204.8,44.8c-0.2,0.7-1.1,1.4-2,1.6L86.8,72.7c-0.9,0.2-2-0.1-2.5-0.6L81,69l125.3-28.4
				L204.8,44.8z"/>
			<path id="XMLID_1694_" class="st7" d="M54.9,41.1L215.6,4.6c1.2-0.3,1.9,0.5,1.5,1.8l-10.4,33.4l0,0.1l0,0l-1.5,4.2
				c-0.2,0.7-1.1,1.4-2,1.6l-117,26.5c-0.9,0.2-2-0.1-2.5-0.6l-3.2-3.1l0,0l0,0L54.5,43.3C53.5,42.4,53.7,41.4,54.9,41.1z"/>
			<path id="XMLID_2275_" class="st5" d="M214.9,7.1l-11.7,35.7L84.9,69.5L57.7,42.9C57.6,42.7,214.9,7.1,214.9,7.1z"/>
			<polygon id="XMLID_2586_" class="st1" points="215.3,7 203.9,43.2 84.6,69.7 57.6,42.8 			"/>
			<polygon id="XMLID_2587_" class="st38" points="215.3,7 143.1,56.4 203.9,43.2 			"/>
		</g>
	</g>
</g>
</svg>
