<?xml version="1.0" encoding="utf-8"?>
<!-- Generator: Adobe Illustrator 19.0.0, SVG Export Plug-In . SVG Version: 6.00 Build 0)  -->
<svg version="1.1" id="Personaje" xmlns="http://www.w3.org/2000/svg" xmlns:xlink="http://www.w3.org/1999/xlink" x="0px" y="0px"
	 width="46.8px" height="141.3px" viewBox="0 0 46.8 141.3" style="enable-background:new 0 0 46.8 141.3;" xml:space="preserve">
<style type="text/css">
	.st0{fill:#FBCEB5;}
	.st1{fill:#E7B39A;}
	.st2{fill:#E6E7E9;}
	.st3{fill:#B3B3B3;}
	.st4{fill:#404042;}
	.st5{fill:#D0D2D3;}
	.st6{opacity:0;}
	.st7{fill:#683C11;}
	.st8{fill:#634E42;}
	.st9{fill:#3D4650;}
	.st10{fill:#603914;}
	.st11{fill:#EB5C2B;}
	.st12{opacity:0.2;fill:#231F20;}
	.st13{fill:#231F20;}
	.st14{fill:#929497;}
	.st15{fill:#1A1A1A;}
	.st16{fill:none;stroke:#000000;stroke-miterlimit:10;}
	.st17{stroke:#000000;stroke-width:0.5;stroke-miterlimit:10;}
</style>
<g id="XMLID_27_">
	<path id="XMLID_188_" class="st0" d="M45.6,73.8c-0.2-0.5-0.5-0.9-1-1.5c-0.2-2.8-0.4-11.4-2.3-17.8c-3.5-11.8-10.1-19.9-19-19.9
		c-8.9,0-15.3,7.9-19,19.6c-2.3,7.2-2.1,15-2.3,17.8c-0.5,0.6-0.8,1-1,1.5c-0.5,1.2-0.6,2-0.6,2c0.1,2,4.3,3.1,4.7,1.2
		c0,0,0.5-1.8,0.5-3.8c0-0.3,0-0.6,0-0.9c0.1-2,0.1-8.7,2-15.1c2.5-8.4,6.2-13.9,6-13.1c-2.5,11.8-2.3,28.4-2.3,28.4s6.5,1.9,12,1.9
		c10.9,0,12-1.9,12-1.9s0.6-16.8-2.3-28.4c-0.2-0.8,3.5,5.1,6,13.4c1.9,6.4,1.9,13.1,2,15.1c-0.2,2.4,0.4,4.8,0.4,4.8
		c0.4,1.9,4.6,0.7,4.7-1.2C46.2,75.8,46.2,75,45.6,73.8z"/>
	<g id="XMLID_185_">
		<path id="XMLID_187_" class="st0" d="M20.6,28.4v7.5c0,0,1.5,1.3,3.1,1.3c1.4,0,2.9-1.3,2.9-1.3v-7.5c-1,0.1-1.9,0.2-3,0.2
			C22.6,28.6,21.6,28.5,20.6,28.4z"/>
		<path id="XMLID_186_" class="st1" d="M20.6,26.2v6.1c1,0.1,2,0.2,3,0.2c1,0,2-0.1,3-0.2v-6.1H20.6z"/>
	</g>
	<g id="XMLID_173_">
		<path id="XMLID_184_" class="st2" d="M44.7,66.5c-0.3-2.9-1-8.6-2-12.1c-3.2-10.8-8.8-17.7-15.5-19.6c-1.1,0.9-2.5,2.1-3.8,2.1
			c-1.2,0-2.4-1-3.6-2.2C13,36.4,7.5,43.1,4.1,54C2.8,58.2,2.2,63.5,2,66.4c-0.1,1.3-0.1,2-0.1,2s0.3,0.5,2,0.5
			c1.7,0,2.2-0.5,2.2-0.5s0-0.6,0.1-1.6c0.2-2.2,0.7-6.2,1.8-9.9c1.5-5.2,3.6-9.3,4.8-11.4c-1.6,11.9-1.7,26.5-1.7,26.6l0,0.1
			l0.1,0.1c0,0,4.1,2.1,12.2,2.1c11,0,12.2-2,12.3-2.2c0-0.2,0.1-14.6-1.7-26.4c1.3,2.3,3.3,6.4,4.8,11.5c0.8,2.6,1.4,7.4,1.7,9.8
			c0.1,0.8,0.2,1.4,0.2,1.4s0.5,0.8,2.2,0.8c1.8,0,2-0.8,2-0.8S44.8,67.7,44.7,66.5z"/>
		<path id="XMLID_183_" class="st3" d="M4,66.9c-0.9-0.1-1.6-0.4-2-0.6c-0.1,1.3-0.1,2-0.1,2s0.3,0.5,2,0.5c1.7,0,2.2-0.5,2.2-0.5
			s0-0.6,0.1-1.6C5.7,66.9,4.9,67,4,66.9z"/>
		<path id="XMLID_182_" class="st3" d="M42.7,67.1c0.9-0.1,1.6-0.4,2-0.6c0.1,1.3,0.1,2,0.1,2s-0.3,0.5-2,0.5
			c-1.6,0-2.2-0.5-2.2-0.5s0-0.6-0.1-1.6C41,67.1,41.8,67.2,42.7,67.1z"/>
		<polygon id="XMLID_181_" class="st4" points="26.1,68.4 23.5,70.3 21.1,68.4 22.9,37.6 24.3,37.6 		"/>
		<path id="XMLID_180_" class="st4" d="M24.8,37.4c0,0-0.5,0.9-1.2,0.9c-0.7,0-1.2-0.9-1.2-0.9l0.9-1.3l0.4,0L24.8,37.4z"/>
		<polygon id="XMLID_179_" class="st5" points="22.3,38.1 18.6,35.2 19.7,33.4 23.3,36.1 		"/>
		<polygon id="XMLID_178_" class="st5" points="24.8,38.1 28.6,35.2 27.5,33.3 23.8,36.1 		"/>
		<path id="XMLID_175_" class="st5" d="M29,52.1L29,52.1l-2.8-0.7v-6h5.6v6L29,52.1z M26.5,51.1l2.5,0.6l2.5-0.6v-5.4h-5V51.1z"/>
		<circle id="XMLID_174_" class="st3" cx="29" cy="47" r="0.5"/>
	</g>
	<g id="XMLID_152_">
		<g id="XMLID_170_" class="st6">
			<g id="XMLID_172_">
				<g id="XMLID_717_">
					<path id="XMLID_722_" class="st7" d="M21.6,21.4c-1.9-0.9-3.8-1.7-6-1.3c-1.7,0.3-3.3,0.7-5,1.1C7.5,21.9,8.9,26.7,12,26
						c1.3-0.3,2.7-0.6,4-0.9c1.2-0.2,1.9,0,3.1,0.6C22,27.1,24.5,22.8,21.6,21.4L21.6,21.4z"/>
				</g>
			</g>
			<g id="XMLID_171_">
				<g id="XMLID_710_">
					<path id="XMLID_715_" class="st7" d="M27.2,25.2c1.2-0.6,2-0.9,3.1-0.6c1.3,0.3,2.7,0.6,4,0.9c3.1,0.7,4.5-4.1,1.3-4.8
						c-1.6-0.4-3.3-0.8-5-1.1c-2.1-0.4-4.1,0.4-6,1.3C21.8,22.3,24.3,26.6,27.2,25.2L27.2,25.2z"/>
				</g>
			</g>
		</g>
		<path id="XMLID_169_" class="st0" d="M34.1,14.1c-0.1-1,0.2-4.6-0.1-4.9c-0.3-0.3-4.4-5.2-9.8-4.9C18.9,4.5,15.5,6.9,14,9.8
			c-0.6,1.2-1.5,2.9-2,4.9c-0.4-0.1-0.8-0.1-1,0c-1.1,0.3-1.2,1.8-1.1,2.6c0.1,0.5,0.4,0.9,0.6,1.4c0.3,0.5,0.5,1,0.6,1.5
			c0.1,0.5,0,1,0.2,1.5c0.1,0.3,0.3,0.5,0.5,0.7c0.3,0.3,0.7,0.5,1,0.5c0.1,0.1,0.1,0.2,0.2,0.3c1,1.4,1.9,2.7,2.9,3.8
			c2,2.2,4.4,3.7,8.3,3.6c1.4,0,2.7-0.2,4-0.5c0.8-0.2,1.7-0.5,2.3-1.1c0.6-0.4,1-1,1.4-1.5c0.3-0.4,0.6-0.7,0.9-1.1
			c0.7-0.9,1.3-1.9,1.8-2.9c0.3-0.7,0.6-1.4,0.6-2.1C35.2,18.7,34.2,15.1,34.1,14.1z"/>
		<g id="XMLID_166_" class="st6">
			<g id="XMLID_168_">
				<g id="XMLID_694_">
					<path id="XMLID_700_" class="st7" d="M26.4,9.8c-1.5-0.7-2.8-1.2-4.5-0.9c-1,0.2-2.1,0.4-3.1,0.7c-3.1,0.7-1.8,5.6,1.3,4.8
						c0.8-0.2,1.7-0.4,2.5-0.6c0.1,0,0.6-0.2,0.7-0.1c0.1,0.1-1-0.2-0.3,0.1c0.1,0,0.8,0.3,0.4,0.1c0.1,0.1,0.3,0.1,0.4,0.2
						c1.2,0.6,2.7,0.3,3.4-0.9C27.9,12.2,27.6,10.4,26.4,9.8L26.4,9.8z"/>
				</g>
			</g>
			<g id="XMLID_167_">
				<g id="XMLID_660_">
					<path id="XMLID_692_" class="st7" d="M29.9,13.8c0.1-0.1,0.3-0.1,0.4-0.2c-0.4,0.2,0.3-0.1,0.4-0.1c0.9-0.4-0.6,0.2-0.3-0.1
						c0.1-0.1,0.6,0.1,0.7,0.1c0.8,0.2,1.7,0.4,2.5,0.6c3.1,0.7,4.5-4.1,1.3-4.8c-1-0.2-2.1-0.5-3.1-0.7c-1.6-0.3-3,0.2-4.5,0.9
						c-1.2,0.6-1.5,2.3-0.9,3.4C27.2,14.1,28.7,14.4,29.9,13.8L29.9,13.8z"/>
				</g>
			</g>
		</g>
		<path id="XMLID_165_" class="st8" d="M12.4,16c0,0-0.3-0.1-0.7-0.2c-0.3-0.1-0.5-0.1-0.7-0.1c-0.2,0-0.4,0.1-0.5,0.4
			c0,0.1,0,0.3,0,0.4c0,0.2,0,0.3,0,0.5c0-0.1,0.1-0.2,0.1-0.3c0.1-0.2,0.1-0.4,0.2-0.6c0-0.1,0.1-0.1,0.1-0.1c0.1,0,0.1,0,0.2,0
			c0.2,0,0.5,0,0.7,0c0.1,0,0.3,0,0.4,0C12.3,16,12.4,16,12.4,16z"/>
		<path id="XMLID_164_" class="st8" d="M11.1,18.6l0.4,2.4c0,0-0.1-0.7,0.1-1.5c0.2-0.9,0.1-0.7-0.2-0.9
			C11.1,18.5,11.1,18.6,11.1,18.6z"/>
		<path id="XMLID_163_" class="st9" d="M12.2,14.8c0,0,1.4,1.5,1.3,3c-0.1,1.5,0,2,0,2l1.1-0.3c0,0,0.4-5,1-6.1
			c0.7-1.4,1.9-0.9,2.2-0.9c0,0-0.1-2.3,2.5-2.7c2.6-0.3,12.5-0.4,13.2-0.7c0,0,1.5-0.2,2.3-1.3c0.5-0.7,0.9-1.8,1-2.6
			c-0.1,0.3-0.3,0.6-0.4,0.9c-0.1-0.5-0.1-0.9-0.2-1.4c0,0.1-0.1,0.2-0.2,0.3c0-0.3-0.1-0.6,0-1c0,0.2-0.1,0.3-0.1,0.5
			c-0.1-0.5-0.3-0.9-0.5-1.3c-0.1,0.2-0.2,0.3-0.1,0.5c0.1-0.3,0-0.6-0.2-0.9c0,0-0.3,0.3-0.3,0.3c-0.2,0.1-0.3-0.2-0.4-0.4
			c0,0,0,0,0,0c0,0,0,0,0,0c-0.1,0-0.2,0.1-0.3,0c0,0-0.1,0-0.1-0.1c0-0.1,0-0.1,0-0.2c0-0.2,0-0.4,0-0.6c-0.1,0-0.2,0.1-0.3,0.1
			c0,0,0-0.1,0-0.1c-0.1,0.1-0.2,0.1-0.2,0.1c0,0,0,0,0,0c0,0,0,0,0-0.1c0-0.1,0-0.2,0-0.3c-0.1,0.1-0.4,0.4-0.6,0.3
			c-0.1-0.1,0.2-0.5,0.2-0.6c0,0,0-0.1,0-0.1c0,0-0.1-0.1-0.1-0.1c-0.4,0-0.7,0-1.1,0c0.2,0,0.3-0.2,0.3-0.3c-0.6,0-1.2,0-1.8,0.2
			c0.1-0.1,0.2-0.2,0.3-0.4c-0.6,0-1.2,0-1.9,0.1c0.1-0.1,0.1-0.2,0.2-0.4c-0.4,0.1-0.8,0.1-1.1,0.1c0-0.1,0.1-0.2,0.1-0.3
			c-0.5,0-1.1,0.1-1.6,0.4c0.2-0.2,0.4-0.4,0.6-0.6c-1-0.1-2,0.3-3,0.2c0.2-0.2,0.4-0.3,0.6-0.5c-1.3,0.2-2.6,0.3-3.9,0.4
			c-0.6,0-1.2,0-1.7,0.1c-0.6,0.1-1.1,0.3-1.6,0.6c-0.2,0.1-0.3,0.1-0.6,0.1c-0.2,0-0.3,0.2-0.5,0.3c-0.2,0.1-0.5,0.1-0.8,0
			c-0.2,0.3-0.3,0.5-0.5,0.8c-0.1,0.1-0.2,0.2-0.3,0.3c-0.1,0-0.3-0.1-0.2-0.2C14.2,3,14.1,3.7,14,4.4c-0.6-0.2-1.1-0.5-1.5-0.9
			c-0.1,0.6-0.2,1.3-0.4,1.8c-0.2,0.4-0.6,0.7-0.6,1.1c0,0.5,0.2,0.9,0.1,1.4c-0.2-0.2-0.4-0.4-0.5-0.6c0,0-0.1-0.1-0.1-0.1
			c-0.1,0-0.1,0.1-0.1,0.2c0,0.5,0,1,0,1.5c0,0.4,0.2,0.7-0.1,1.1c-0.2,0.2-0.2,0.2-0.2,0.5c0,0.4,0.1,0.9,0.1,1.3c0,0,0,0.1,0,0.1
			c0,0.1-0.2,0.1-0.2,0.1c-0.1,0-0.1-0.1-0.2-0.2c-0.1,0.5-0.1,1,0,1.5c-0.1-0.1-0.2-0.2-0.3-0.3c0,0.4,0.1,0.7,0.3,1
			c0.1,0.1,0.3,0.2,0.4,0.4c0.1,0.1,0.1,0.3,0.2,0.3c0.1,0,0.2,0.1,0.2,0.1S11.9,14.4,12.2,14.8z"/>
		<ellipse id="XMLID_162_" class="st9" cx="30.6" cy="18.4" rx="0.9" ry="1.5"/>
		
			<rect id="XMLID_161_" x="18.6" y="15.4" transform="matrix(0.9933 -0.1156 0.1156 0.9933 -1.6929 2.6645)" class="st9" width="7.1" height="1.1"/>
		
			<rect id="XMLID_160_" x="28.1" y="14.8" transform="matrix(1 -9.444167e-003 9.444167e-003 1 -0.1437 0.2994)" class="st9" width="7.1" height="1.1"/>
		<path id="XMLID_159_" class="st9" d="M19.4,29.4c0.5,0.3,0.9,0.7,1.2,1.2c0.1-0.2,0.2-0.4,0.3-0.5c0.2,0.3,0.3,0.6,0.5,0.9
			c0-0.2,0.1-0.5,0.1-0.7c0.5,0.2,1,0.6,1.3,1.1c0-0.2,0-0.4,0.1-0.5c0.4,0.3,0.7,0.7,1,1.1c0-0.1,0-0.2,0-0.3
			c0.2,0.1,0.4,0.4,0.5,0.6c0.1,0.2,0.3,0.4,0.5,0.5c0.2,0.1,0.6-0.1,0.6-0.3c0.1,0.2,0.2,0.4,0.4,0.6c0.2-0.2,0.3-0.4,0.5-0.5
			c0.1-0.1,0.2-0.2,0.3-0.1c0.4-0.4,0.8-0.8,1.1-1.1c0.6,0.1,1.2-0.1,1.7-0.3c0-0.1,0-0.2,0-0.2c0.1-0.2,0.2-0.3,0.4-0.4
			c0.7-0.6,1.1-1.5,1.4-2.4c-0.7,0.6-1.4,1.1-2.1,1.7c-0.1,0.1-0.2,0.2-0.4,0.2c-0.1,0-0.3,0-0.4,0c-0.3,0.1-0.5,0.5-0.8,0.3
			c-0.1,0-0.1-0.1-0.2-0.2c-0.2-0.2-0.5-0.1-0.7,0c-0.2,0.1-0.5,0.2-0.7,0.3c-0.3,0-0.6-0.1-0.6-0.4c-0.2,0.3-0.5,0.5-0.9,0.5
			c-0.4,0-0.7-0.3-0.9-0.6c-0.1,0.2-0.1,0.3-0.3,0.4c-0.2,0-0.3-0.1-0.5-0.2c-0.2-0.1-0.4,0-0.4,0.2c-0.3-0.4-1-0.4-1.5-0.4
			c-0.4,0-0.8-0.1-1.2-0.3"/>
		<ellipse id="XMLID_158_" class="st9" cx="21.2" cy="18.4" rx="0.9" ry="1.5"/>
		<path id="XMLID_157_" class="st1" d="M26.9,17.4c-0.8,0-1.4,0.6-1.4,1.4v5c0,0.8,0.6,1.5,1.4,1.5s1.4-0.7,1.4-1.5v-5
			C28.3,18,27.7,17.4,26.9,17.4z"/>
		<path id="XMLID_156_" class="st1" d="M26,29.1c0.5,0,0.9,0.1,1.3,0.1C27,29.1,26.6,29,26,29c-0.6,0-1,0.2-1.3,0.3
			C25.1,29.2,25.5,29.1,26,29.1z"/>
		<path id="XMLID_155_" class="st1" d="M22.5,25.9v0.3c0,0.2,0,0.4,0.1,0.6c0.1,0.5,0.4,1,0.9,1.3c0.6,0.4,1.5,0.6,2.5,0.6
			c1,0,1.8-0.2,2.4-0.6c0.5-0.3,0.8-0.8,1-1.3c0-0.2,0.1-0.4,0.1-0.6v-0.3H22.5z"/>
		<path id="XMLID_154_" class="st10" d="M25.9,26.1h-3.2c0,0.2,0,0.3,0.1,0.5c0.1,0.5,0.4,0.8,0.8,1.1c0.5,0.4,1.3,0.6,2.3,0.6
			c0.9,0,1.7-0.2,2.3-0.5c0.4-0.3,0.7-0.7,0.8-1.1c0-0.2,0.1-0.3,0.1-0.5H25.9z"/>
		<path id="XMLID_153_" class="st11" d="M28.2,27.7c-0.5-0.5-1.3-0.9-2.3-0.9c-0.9,0-1.8,0.3-2.3,0.8c0.5,0.4,1.3,0.6,2.3,0.6
			C26.9,28.3,27.6,28.1,28.2,27.7z"/>
	</g>
	<ellipse id="XMLID_151_" class="st12" cx="24.2" cy="138.8" rx="20" ry="2.5"/>
	<path id="XMLID_150_" class="st0" d="M27.6,83.5c-0.2-4.5-0.4-5.8,1.2-5.9H29l1.3,0c1.6,0,3.4,1.2,3.6,5.7L32,136.7
		c-2.1,0.6-3.9-2-3.9-2L27.6,83.5z"/>
	<path id="XMLID_149_" class="st0" d="M18.1,77.7H18l-1.3,0c-1.6,0-3.4,1.2-3.6,5.7l1.5,44.7l0.4,8.7c2.1,0.6,3.9-2,3.9-2l0.1-6.7
		l0.4-44.5C19.5,79,19.7,77.7,18.1,77.7z"/>
	<path id="XMLID_148_" class="st2" d="M18.8,134.7l0.1-6.7h-4.4l0.4,8.7C17,137.3,18.8,134.7,18.8,134.7z"/>
	<path id="XMLID_147_" class="st2" d="M28.1,134.7L28,128h4.4l-0.4,8.7C29.9,137.3,28.1,134.7,28.1,134.7z"/>
	<g id="XMLID_140_">
		<path id="XMLID_146_" class="st4" d="M24,73.3C16,73.3,11.1,72,11.1,72l0.1,1.3l2.9,60c0,0,1.3,0.8,3.1,0.8c1.7,0,2-0.8,2-0.8
			l0.7-50.9h7.7l0,50.9c0,0,1,0.8,2.6,0.8c1.8,0,2.5-0.8,2.5-0.8l2.9-59.5l0.1-1.7C35.7,72,31.9,73.3,24,73.3z"/>
		<path id="XMLID_145_" class="st13" d="M24,73.8C16,73.8,11.1,72,11.1,72l0.1,1.9c3.1,1.3,7.7,2.2,12.8,2.2c4.5,0,8.6-0.7,11.7-1.7
			l0.1-1.7C35.7,72.5,31.9,73.8,24,73.8z"/>
		<rect id="XMLID_144_" x="21.5" y="73.8" class="st14" width="4.5" height="2.6"/>
		<g id="XMLID_141_">
			<rect id="XMLID_143_" x="17.3" y="72.9" class="st4" width="1" height="4"/>
			<rect id="XMLID_142_" x="29.2" y="72.9" class="st4" width="1" height="4"/>
		</g>
	</g>
	<path id="XMLID_139_" class="st13" d="M18.9,134.3c-0.2,0.2-3.2,0.6-4.1-0.1c-0.3,0.2-0.7,0.5-1.1,0.7c-0.1,0-0.2,0.1-0.3,0.1
		c-0.2,0.1-0.4,0.2-0.6,0.3c-0.1,0-0.2,0.1-0.3,0.1c-0.2,0.1-0.5,0.2-0.7,0.3c-0.1,0-0.2,0.1-0.3,0.1c-0.7,0.3-1.2,0.8-1.5,1.3
		c-0.5,1,0,2,1.7,2.2c1,0.1,5.3-0.3,6.9-2.1c0.4-0.5,0.3-1.3,0.4-2C19,135,18.9,134.7,18.9,134.3z"/>
	<g id="XMLID_135_">
		<path id="XMLID_138_" class="st15" d="M15.1,135.7l-1.4-1.2c-0.1,0-0.2,0.1-0.3,0.1l1.5,1.3L15.1,135.7z"/>
		<path id="XMLID_137_" class="st15" d="M14.1,136l-1.4-1.1c-0.1,0-0.2,0.1-0.3,0.1l1.5,1.2L14.1,136z"/>
		<path id="XMLID_136_" class="st15" d="M13.2,136.5l-1.4-1.1c-0.1,0-0.2,0.1-0.3,0.1l1.5,1.2L13.2,136.5z"/>
	</g>
	<g id="XMLID_129_">
		<path id="XMLID_134_" class="st13" d="M28.1,134.3c0.2,0.2,3.2,0.6,4.1-0.1c0.3,0.2,0.7,0.5,1.1,0.7c0.1,0,0.2,0.1,0.3,0.1
			c0.2,0.1,0.4,0.2,0.6,0.3c0.1,0,0.2,0.1,0.3,0.1c0.2,0.1,0.5,0.2,0.7,0.3c0.1,0,0.2,0.1,0.3,0.1c0.7,0.3,1.2,0.8,1.5,1.3
			c0.5,1,0,2-1.7,2.2c-1,0.1-5.3-0.3-6.9-2.1c-0.4-0.5-0.3-1.3-0.4-2C28,135,28,134.7,28.1,134.3z"/>
		<g id="XMLID_130_">
			<path id="XMLID_133_" class="st15" d="M31.9,136l1.4-1.2c0.1,0,0.2,0.1,0.3,0.1l-1.5,1.3L31.9,136z"/>
			<path id="XMLID_132_" class="st15" d="M32.8,136.4l1.4-1.1c0.1,0,0.2,0.1,0.3,0.1l-1.5,1.2L32.8,136.4z"/>
			<path id="XMLID_131_" class="st15" d="M33.8,136.9l1.4-1.1c0.1,0,0.2,0.1,0.3,0.1l-1.5,1.2L33.8,136.9z"/>
		</g>
	</g>
	<g id="XMLID_91_">
		<path id="XMLID_128_" class="st0" d="M41,76.6c-0.3,0.5-0.8,0.6-1.1,0.4l0,0c-0.3-0.2-0.4-0.8-0.1-1.2l1.3-1.9
			c0.3-0.5,0.8-0.6,1.1-0.4l0,0c0.3,0.2,0.4,0.8,0.1,1.2L41,76.6z"/>
		<path id="XMLID_127_" class="st0" d="M42.8,79.1c0,0.6-0.3,1.1-0.7,1l0,0c-0.4,0-0.7-0.5-0.6-1.1l0-2.5c0-0.6,0.3-1.1,0.7-1l0,0
			c0.4,0,0.7,0.5,0.6,1.1L42.8,79.1z"/>
		<path id="XMLID_126_" class="st0" d="M44.2,78.8c0,0.5-0.2,0.9-0.6,0.9l0,0c-0.3,0-0.6-0.4-0.7-0.9l-0.1-2.2
			c0-0.5,0.2-0.9,0.6-0.9l0,0c0.3,0,0.6,0.4,0.7,0.9L44.2,78.8z"/>
		<path id="XMLID_102_" class="st0" d="M45.5,78c0.1,0.4-0.1,0.8-0.4,0.9l0,0c-0.3,0.1-0.6-0.2-0.7-0.7L44,76.4
			c-0.1-0.4,0.1-0.8,0.4-0.9l0,0c0.3-0.1,0.6,0.2,0.7,0.7L45.5,78z"/>
		<path id="XMLID_99_" class="st0" d="M46.7,77.4c0.1,0.4,0,0.7-0.3,0.8l0,0c-0.3,0.1-0.6-0.1-0.8-0.5l-0.5-1.5
			c-0.1-0.4,0-0.7,0.3-0.8l0,0c0.3-0.1,0.6,0.1,0.8,0.5L46.7,77.4z"/>
	</g>
	<g id="XMLID_28_">
		<path id="XMLID_43_" class="st0" d="M5.7,76c0.3,0.5,0.8,0.6,1.1,0.4l0,0c0.3-0.2,0.4-0.8,0.1-1.2l-1.3-1.9
			c-0.3-0.5-0.8-0.6-1.1-0.4l0,0c-0.3,0.2-0.4,0.8-0.1,1.2L5.7,76z"/>
		<path id="XMLID_33_" class="st0" d="M4,78.5c0,0.6,0.3,1.1,0.7,1l0,0c0.4,0,0.7-0.5,0.6-1.1l0-2.5c0-0.6-0.3-1.1-0.7-1l0,0
			c-0.4,0-0.7,0.5-0.6,1.1L4,78.5z"/>
		<path id="XMLID_32_" class="st0" d="M2.6,78.3c0,0.5,0.2,0.9,0.6,0.9l0,0c0.3,0,0.6-0.4,0.7-0.9l0.1-2.2c0-0.5-0.2-0.9-0.6-0.9
			l0,0c-0.3,0-0.6,0.4-0.7,0.9L2.6,78.3z"/>
		<path id="XMLID_30_" class="st0" d="M1.3,77.4c-0.1,0.4,0.1,0.8,0.4,0.9l0,0c0.3,0.1,0.6-0.2,0.7-0.7l0.4-1.8
			C2.9,75.4,2.7,75,2.4,75l0,0c-0.3-0.1-0.6,0.2-0.7,0.7L1.3,77.4z"/>
		<path id="XMLID_29_" class="st0" d="M0,76.8c-0.1,0.4,0,0.7,0.3,0.8l0,0c0.3,0.1,0.6-0.1,0.8-0.5l0.5-1.5c0.1-0.4,0-0.7-0.3-0.8
			l0,0c-0.3-0.1-0.6,0.1-0.8,0.5L0,76.8z"/>
	</g>
</g>
<g id="XMLID_4720_">
	<g id="XMLID_4721_">
		<line id="XMLID_4722_" class="st16" x1="709.4" y1="121.2" x2="723.4" y2="121.2"/>
		<g id="XMLID_4723_">
			<g id="XMLID_4724_">
				<line id="XMLID_4726_" class="st16" x1="709.4" y1="121.2" x2="709.4" y2="121.1"/>
				<line id="XMLID_4727_" class="st16" x1="723.4" y1="121.2" x2="723.4" y2="121.1"/>
			</g>
			<g id="XMLID_4725_">
			</g>
		</g>
	</g>
	<g id="XMLID_4728_">
		<g id="XMLID_4729_">
			
				<text id="XMLID_4735_" transform="matrix(1 0 0 1 708.5345 121.3517)" style="font-family:'MyriadPro-Regular'; font-size:0.5px;">0,0</text>
			
				<text id="XMLID_4737_" transform="matrix(1 0 0 1 708.5345 121.7516)" style="font-family:'MyriadPro-Regular'; font-size:0.5px;">0,2</text>
			
				<text id="XMLID_4739_" transform="matrix(1 0 0 1 708.5345 122.1515)" style="font-family:'MyriadPro-Regular'; font-size:0.5px;">0,4</text>
			
				<text id="XMLID_4741_" transform="matrix(1 0 0 1 708.5345 122.5519)" style="font-family:'MyriadPro-Regular'; font-size:0.5px;">0,6</text>
			
				<text id="XMLID_4743_" transform="matrix(1 0 0 1 708.5345 122.9518)" style="font-family:'MyriadPro-Regular'; font-size:0.5px;">0,8</text>
			
				<text id="XMLID_4745_" transform="matrix(1 0 0 1 708.5345 123.3517)" style="font-family:'MyriadPro-Regular'; font-size:0.5px;">1,0</text>
		</g>
		<line id="XMLID_4730_" class="st16" x1="709.4" y1="121.2" x2="709.4" y2="123.2"/>
		<g id="XMLID_4731_">
			<g id="XMLID_4732_">
				<line id="XMLID_4734_" class="st16" x1="709.4" y1="121.2" x2="709.7" y2="121.2"/>
				<line id="XMLID_4736_" class="st16" x1="709.4" y1="121.6" x2="709.7" y2="121.6"/>
				<line id="XMLID_4738_" class="st16" x1="709.4" y1="122" x2="709.7" y2="122"/>
				<line id="XMLID_4740_" class="st16" x1="709.4" y1="122.4" x2="709.7" y2="122.4"/>
				<line id="XMLID_4742_" class="st16" x1="709.4" y1="122.8" x2="709.7" y2="122.8"/>
				<line id="XMLID_4744_" class="st16" x1="709.4" y1="123.2" x2="709.7" y2="123.2"/>
			</g>
			<g id="XMLID_4733_">
			</g>
		</g>
	</g>
	<g id="XMLID_4746_">
		<g id="XMLID_4747_">
			<g id="XMLID_4751_">
				<rect id="XMLID_4750_" x="711.3" y="121.2" class="st17" width="10.1" height="2"/>
			</g>
		</g>
	</g>
	<g id="XMLID_4748_">
		<g id="XMLID_4749_">
		</g>
	</g>
</g>
</svg>
